<svg version="1.0" xmlns="http://www.w3.org/2000/svg"
 width="625.000000pt" height="254.000000pt" viewBox="0 0 625.000000 254.000000"
 preserveAspectRatio="xMidYMid meet">

<g transform="translate(0.000000,254.000000) scale(0.100000,-0.100000)"
fill="#000000" stroke="none">
<path d="M5754 2256 c-29 -29 -34 -41 -34 -79 0 -37 5 -51 31 -76 25 -26 39
-31 76 -31 38 0 50 5 79 34 28 28 34 42 34 76 0 34 -6 48 -34 76 -28 28 -42
34 -76 34 -34 0 -48 -6 -76 -34z"/>
<path d="M5250 2210 c-52 -16 -103 -29 -112 -29 -10 -1 -18 -6 -18 -12 0 -11
21 -90 26 -97 1 -2 53 11 115 27 63 17 125 31 138 31 20 0 140 -77 140 -90 1
-3 -45 -43 -100 -90 -102 -86 -129 -120 -129 -162 0 -25 34 -81 114 -188 l48
-65 -201 -3 -201 -2 0 -55 0 -55 211 0 c232 0 260 6 292 59 25 43 21 69 -28
176 -25 54 -44 99 -43 100 2 1 43 34 93 75 l90 73 12 -41 c18 -64 42 -98 87
-123 35 -20 58 -24 159 -27 l117 -4 0 56 0 56 -105 0 c-97 0 -108 2 -129 23
-15 15 -25 41 -30 75 -9 68 -28 89 -193 213 -136 102 -138 103 -197 106 -44 2
-87 -6 -156 -27z"/>
<path d="M820 2041 c-186 -40 -357 -130 -492 -259 -100 -95 -158 -173 -214
-284 -191 -381 -128 -842 160 -1154 160 -174 357 -280 593 -319 88 -14 275
-16 1808 -13 l1710 3 80 22 c302 81 546 276 679 541 38 74 84 218 92 283 l6
54 -49 18 c-120 43 -271 166 -354 289 -103 151 -134 283 -127 540 l5 177 -45
21 c-88 42 -143 60 -241 80 -97 20 -130 20 -1813 19 -1612 0 -1718 -1 -1798
-18z m2938 -771 c46 -43 13 -110 -53 -110 -22 0 -43 8 -55 20 -62 62 43 150
108 90z m-1783 -71 c116 -59 130 -221 27 -305 l-26 -21 47 -66 c70 -98 71 -97
-6 -97 l-66 0 -48 70 -48 70 -52 0 -53 0 0 -70 0 -70 -60 0 -60 0 0 261 0 261
148 -3 c135 -4 152 -6 197 -30z m-520 -114 c53 -30 87 -91 89 -158 l1 -52
-142 -3 c-79 -1 -143 -7 -143 -12 0 -4 12 -18 26 -29 33 -26 102 -28 146 -5
30 16 31 15 61 -14 37 -37 32 -53 -26 -81 -83 -40 -208 -25 -267 32 -63 61
-80 127 -56 210 37 127 190 182 311 112z m1519 7 c57 -33 71 -80 71 -237 l0
-140 -57 -3 -58 -3 0 111 c0 133 -13 175 -59 185 -38 8 -81 -11 -98 -45 -8
-16 -13 -67 -13 -138 l0 -113 -57 3 -58 3 -3 198 -2 197 54 0 c41 0 57 -4 65
-17 8 -14 12 -15 25 -4 40 33 136 35 190 3z m504 2 c64 -38 84 -109 80 -276
l-3 -103 -60 0 -60 0 -5 128 c-5 122 -6 130 -30 149 -29 23 -74 18 -105 -12
-17 -18 -21 -38 -25 -143 l-5 -122 -57 -3 -58 -3 0 201 0 200 55 0 c44 0 55
-3 55 -16 0 -12 5 -14 18 -9 68 29 91 35 130 30 24 -3 56 -12 70 -21z m716 -2
c59 -35 71 -70 74 -234 l4 -148 -60 0 -60 0 -4 130 c-4 149 -11 165 -78 165
-66 0 -74 -16 -80 -163 l-5 -127 -60 0 -60 0 -3 198 -2 197 60 0 c47 0 60 -3
60 -15 0 -17 16 -20 25 -5 20 32 135 34 189 2z m432 3 c29 -19 44 -19 44 0 0
12 13 15 56 15 l55 0 -3 -207 c-3 -236 -8 -253 -80 -301 -39 -25 -49 -27 -147
-27 -83 0 -114 4 -143 19 -43 21 -46 37 -19 83 l20 32 40 -20 c47 -22 147 -25
173 -5 16 12 38 56 38 77 0 5 -17 0 -37 -11 -103 -55 -243 8 -274 123 -26 96
36 210 127 235 48 13 120 7 150 -13z m-4048 -67 c16 -46 35 -100 42 -121 6
-21 15 -36 18 -32 4 3 25 56 47 118 l40 112 54 0 54 0 39 -110 c22 -60 43
-113 47 -117 4 -5 26 46 50 112 l43 120 49 0 c26 0 50 -3 52 -7 3 -5 -14 -60
-37 -123 -24 -63 -55 -150 -70 -192 l-28 -78 -58 0 -58 0 -37 105 c-21 58 -41
108 -45 110 -4 2 -25 -44 -47 -103 l-40 -107 -56 -3 c-47 -2 -57 0 -66 17 -17
31 -131 351 -131 367 0 10 14 14 54 14 l54 0 30 -82z m1682 75 c1 -5 3 -57 5
-118 3 -60 7 -120 10 -132 10 -45 111 -49 131 -5 5 9 11 71 14 137 l5 120 60
0 60 0 0 -195 0 -195 -57 -3 c-52 -3 -58 -1 -58 17 0 20 0 20 -35 0 -46 -27
-147 -24 -187 6 -54 40 -63 69 -66 213 -2 73 -1 139 2 147 4 11 21 15 61 15
30 0 55 -3 55 -7z m1505 -193 l0 -195 -60 0 -60 0 -3 185 c-1 101 0 190 3 198
3 9 21 12 62 10 l58 -3 0 -195z"/>
<path d="M1750 1040 l0 -80 65 0 c35 0 76 5 90 12 50 23 49 114 -1 137 -14 6
-54 11 -89 11 l-65 0 0 -80z"/>
<path d="M1286 999 c-48 -38 -35 -49 59 -49 67 0 85 3 85 14 0 23 -50 56 -85
56 -18 0 -44 -9 -59 -21z"/>
<path d="M4489 981 c-36 -36 -37 -70 -4 -109 32 -38 72 -48 118 -28 53 22 70
66 46 119 -25 54 -114 64 -160 18z"/>
<path d="M4900 1975 l0 -25 191 0 c177 0 194 2 225 21 19 11 34 23 34 25 0 2
-101 4 -225 4 l-225 0 0 -25z"/>
<path d="M4900 1855 l0 -25 159 0 159 0 4 25 5 25 -163 0 -164 0 0 -25z"/>
<path d="M4906 1763 c-3 -4 -6 -17 -6 -30 l0 -23 160 0 c150 0 160 1 160 19 0
10 -6 23 -12 29 -14 11 -291 15 -302 5z"/>
<path d="M5233 1279 c-43 -44 -79 -84 -80 -87 -2 -4 16 -19 40 -34 l42 -27
108 107 c59 58 107 110 107 114 0 5 -31 8 -70 8 l-69 0 -78 -81z"/>
</g>
</svg>
